<svg xmlns="http://www.w3.org/2000/svg" role="img" viewBox="-7.99 85.25 415.74 74.24"><title>lfesummit24-black.svg</title><style>svg {enable-background:new 0 0 400 245}</style><style/><path d="M5 119.7v-9.9H0v14.9h14.9v-5z"/><path d="M24.8 99.9H0v7.4h4.9v-2.4h15v14.8h-2.6v5h7.5zm6.6.3h7.5v18.2h10.9v6.3H31.4zm21.6 0h19v6.3H60.6v3h9.7v5.9h-9.7v9.3H53v-24.5zm38.5 24.7H77.8v-24.8h13.7v1.6h-12v9.4h11.3v1.6H79.5v10.6h12zm23.9 0h-1.8l-14.8-22h-.1c.1 2.6.2 4.6.2 5.9v16h-1.7v-24.7h1.7l14.8 21.9h.1c-.1-2-.2-4-.2-5.8v-16.1h1.7l.1 24.8zm20.8 0h-13.7v-24.8h13.7v1.6h-12v9.4h11.3v1.6h-11.3v10.6h12zm7.4-10.8v10.8h-1.7v-24.7h6c3.1 0 5.4.6 6.9 1.7s2.2 2.8 2.2 5.1c0 1.7-.4 3.1-1.3 4.2s-2.2 2-4 2.4l6.8 11.2h-2.1l-6.5-10.8-6.3.1zm0-1.5h4.8c2.1 0 3.8-.5 4.9-1.4 1.2-.9 1.7-2.3 1.7-4.1 0-1.9-.6-3.2-1.7-4.1-1.1-.9-3-1.3-5.6-1.3h-4.1v10.9zm28.7-.5h9v11c-2.4 1-5 1.5-8 1.5-3.9 0-6.8-1.1-8.9-3.2-2-2.2-3.1-5.2-3.1-9.1 0-2.5.5-4.6 1.5-6.5 1-1.9 2.5-3.4 4.4-4.4 1.9-1 4.1-1.6 6.6-1.6 2.7 0 5.1.5 7.2 1.5l-.7 1.5c-2.1-1-4.3-1.5-6.6-1.5-3.2 0-5.8 1-7.7 2.9-1.9 2-2.8 4.6-2.8 7.9 0 3.6.9 6.4 2.7 8.2 1.8 1.8 4.4 2.7 7.9 2.7 2.3 0 4.2-.3 5.7-.9v-8.5h-7.3l.1-1.5zm21 1.5l7.3-13.5h1.9l-8.3 15.1v9.5h-1.8v-9.4l-8.4-15.2h2z"/><path d="M82.5 145.3c-.8 0-1.6-.1-2.3-.4-.7-.2-1.5-.6-2.1-1.1V141h1.4l.3 2.1c.4.2.8.4 1.3.6.5.1 1 .2 1.5.2.6 0 1.1-.1 1.5-.3.4-.2.7-.4 1-.8.2-.3.3-.7.3-1.1 0-.4-.1-.8-.3-1.1-.2-.3-.5-.6-1-.8-.4-.2-1.1-.4-1.8-.6-.9-.2-1.7-.5-2.3-.8-.6-.4-1.1-.8-1.4-1.3-.3-.5-.5-1.1-.5-1.7 0-.7.2-1.3.5-1.8.4-.5.9-1 1.5-1.3.7-.3 1.4-.5 2.3-.5.9 0 1.7.1 2.5.4.7.3 1.3.6 1.8 1v2.6h-1.4l-.3-1.9c-.3-.2-.6-.4-1-.5-.4-.1-.9-.2-1.5-.2-.5 0-1 .1-1.3.3-.4.2-.7.4-.9.7-.2.3-.3.7-.3 1.1 0 .4.1.7.3 1 .2.3.5.5 1 .7.4.2 1 .4 1.8.6 1.4.3 2.4.9 3.2 1.5.7.7 1.1 1.5 1.1 2.5 0 .7-.2 1.3-.6 1.9-.4.5-.9 1-1.6 1.3-.9.3-1.7.5-2.7.5zm12.3 0c-.9 0-1.7-.2-2.4-.5-.7-.4-1.3-.9-1.7-1.5-.4-.7-.6-1.5-.6-2.4v-7.5l-1.5-.3v-1.2h4.7v1.2l-1.5.3v7.5c0 .7.1 1.2.4 1.7.3.4.6.8 1 1 .4.2 1 .3 1.6.3.6 0 1.1-.1 1.6-.3.5-.2.8-.6 1.1-1 .3-.4.4-1 .4-1.7v-7.5l-1.5-.3v-1.2h4.7v1.2l-1.5.3v7.5c0 1-.2 1.8-.6 2.4-.4.7-1 1.2-1.7 1.5-.7.3-1.5.5-2.5.5zm7.8-.2V144l1.5-.3v-10.4l-1.5-.3v-1.2h3.9l4.3 10h.1l4.1-10h4v1.2l-1.5.3v10.4l1.5.3v1.1h-4.7V144l1.6-.3v-9.3l-4.3 10.3h-1.2l-4.4-10.3.1 5.5v3.8l1.6.3v1.1h-5.1zm18 0V144l1.5-.3v-10.4l-1.5-.3v-1.2h3.9l4.3 10h.1l4.1-10h4v1.2l-1.5.3v10.4l1.5.3v1.1h-4.7V144l1.6-.3v-9.3l-4.3 10.3h-1.2l-4.4-10.3.1 5.5v3.8l1.6.3v1.1h-5.1zm17.9 0V144l1.5-.3v-10.4l-1.5-.3v-1.2h4.7v1.2l-1.5.3v10.4l1.5.3v1.1h-4.7zm9.4 0V144l1.5-.3v-10.5h-3l-.3 1.8h-1.3v-3.2h11v3.2h-1.3l-.3-1.8h-3v10.5l1.5.3v1.1h-4.8zm14.3 0v-1.2l4.3-4.8c.5-.6.9-1.1 1.2-1.5.3-.4.5-.8.6-1.1.1-.3.2-.7.2-1 0-.7-.2-1.2-.6-1.7-.4-.4-1-.7-1.7-.7-.8 0-1.4.2-1.8.7-.4.5-.6 1.1-.6 2H162v-.1c0-.8.1-1.4.5-2.1.3-.6.8-1.1 1.5-1.4.6-.4 1.4-.5 2.3-.5.8 0 1.6.2 2.2.5.6.3 1.1.8 1.4 1.3.3.5.5 1.2.5 1.9 0 .5-.1 1-.3 1.4-.2.5-.5 1-.8 1.5-.4.5-.8 1-1.3 1.6l-3.5 3.8h4.7l.1-1.5h1.5v2.9h-8.6zm14.7.2c-1.3 0-2.3-.4-3.1-1.4-.8-.9-1.1-2.2-1.1-3.9v-3.1c0-1.7.4-3 1.1-3.9.7-.9 1.8-1.4 3.1-1.4s2.3.5 3.1 1.4c.8.9 1.1 2.2 1.1 3.9v3.1c0 1.7-.4 3-1.1 3.9-.8.9-1.8 1.4-3.1 1.4zm0-1.4c.8 0 1.4-.3 1.8-.9.4-.6.6-1.4.6-2.6v-3.9c0-1.1-.2-2-.6-2.6s-1-.9-1.8-.9-1.4.3-1.8.9c-.4.6-.6 1.4-.6 2.6v3.9c0 1.1.2 2 .6 2.6.4.6 1 .9 1.8.9zm6.1 1.2v-1.2l4.3-4.8c.5-.6.9-1.1 1.2-1.5.3-.4.5-.8.6-1.1.1-.3.2-.7.2-1 0-.7-.2-1.2-.6-1.7-.4-.4-1-.7-1.7-.7-.8 0-1.4.2-1.8.7-.4.5-.6 1.1-.6 2h-1.7v-.1c0-.8.1-1.4.5-2.1.3-.6.8-1.1 1.5-1.4.6-.4 1.4-.5 2.3-.5.8 0 1.6.2 2.2.5.6.3 1.1.8 1.4 1.3.3.5.5 1.2.5 1.9 0 .5-.1 1-.3 1.4-.2.5-.5 1-.8 1.5-.4.5-.8 1-1.3 1.6l-3.5 3.8h4.7l.1-1.5h1.5v2.9H183zm14.4 0V144l1.5-.3V142H193v-1l5.8-9.1h1.9v8.8h1.8v1.4h-1.8v1.7l1.5.3v1.1h-4.8zm-2.5-4.5h4v-6.2h-.1l-.2.5-3.7 5.7z"/><g><path d="M220.8 116.6v-.6h1.1l5.5-14.8h.7l5.5 14.8h1.1v.6h-3.3v-.6h1.5l-1.5-4h-7.5l-1.5 4h1.5v.6h-3.1zm3.5-5.2h7.1l-3.2-8.7-.3-.9h-.1l-.3.9-3.2 8.7zm17.2 5.4c-.9 0-1.7-.2-2.4-.7-.7-.5-1.2-1.1-1.6-2-.4-.9-.6-1.9-.6-3v-.4c0-1.1.2-2.1.6-3 .4-.9.9-1.5 1.6-2 .7-.5 1.5-.7 2.4-.7.9 0 1.6.2 2.3.5.7.4 1.3.8 1.7 1.3v2.4h-.6V107c-.4-.5-1-.8-1.5-1.1-.6-.3-1.2-.4-1.9-.4-.8 0-1.5.2-2.1.7-.6.4-1.1 1-1.4 1.8-.3.8-.5 1.7-.5 2.7v.4c0 1 .2 1.9.5 2.7.3.8.8 1.4 1.4 1.8.6.4 1.3.6 2.1.6 1 0 1.8-.2 2.5-.7s1.1-1.3 1.2-2.3h.5v.1c-.1.8-.3 1.4-.7 2-.4.5-.9.9-1.5 1.2s-1.3.3-2 .3zm11.4 0c-.9 0-1.7-.2-2.4-.7-.7-.5-1.2-1.1-1.6-2-.4-.9-.6-1.9-.6-3v-.4c0-1.1.2-2.1.6-3 .4-.9.9-1.5 1.6-2 .7-.5 1.5-.7 2.4-.7.9 0 1.6.2 2.3.5.7.4 1.3.8 1.7 1.3v2.4h-.6V107c-.4-.5-1-.8-1.5-1.1-.6-.3-1.2-.4-1.9-.4-.8 0-1.5.2-2.1.7-.6.4-1.1 1-1.4 1.8-.3.8-.5 1.7-.5 2.7v.4c0 1 .2 1.9.5 2.7.3.8.8 1.4 1.4 1.8.6.4 1.3.6 2.1.6 1 0 1.8-.2 2.5-.7s1.1-1.3 1.2-2.3h.5v.1c-.1.8-.3 1.4-.7 2s-.9.9-1.5 1.2c-.6.2-1.2.3-2 .3zm11.6 0c-.9 0-1.7-.2-2.4-.7s-1.3-1.1-1.7-1.9c-.4-.8-.6-1.8-.6-2.9v-.7c0-1.1.2-2.1.6-2.9.4-.9 1-1.5 1.7-2s1.5-.7 2.4-.7c.9 0 1.6.2 2.3.6.6.4 1.1.9 1.5 1.6s.5 1.5.5 2.5v.9h-8.3v.8c0 .9.2 1.8.5 2.5.4.7.9 1.3 1.5 1.8.6.4 1.4.6 2.2.6.7 0 1.4-.1 1.9-.4.6-.2 1.1-.6 1.5-1l.3.4c-.5.5-1 .8-1.6 1.1-.7.3-1.4.4-2.3.4zm-4-6.9h7.7v-.3c0-.8-.2-1.5-.5-2.1-.3-.6-.7-1.1-1.3-1.4-.6-.4-1.2-.5-2-.5-.7 0-1.4.2-1.9.6-.6.4-1 .9-1.4 1.5-.4.6-.6 1.3-.6 2.2zm10.4 6.7v-.6h1.7v-15.3h-1.7v-.6h2.3V116h1.7v.6h-4zm11 .2c-.9 0-1.7-.2-2.4-.7-.7-.5-1.3-1.1-1.7-1.9-.4-.8-.6-1.8-.6-2.9v-.7c0-1.1.2-2.1.6-2.9s1-1.5 1.7-2 1.5-.7 2.4-.7c.9 0 1.6.2 2.3.6.6.4 1.1.9 1.5 1.6s.5 1.5.5 2.5v.9h-8.3v.8c0 .9.2 1.8.5 2.5.4.7.9 1.3 1.5 1.8.6.4 1.4.6 2.2.6.7 0 1.4-.1 1.9-.4.6-.2 1.1-.6 1.5-1l.3.4c-.5.5-1 .8-1.6 1.1-.8.3-1.5.4-2.3.4zm-4.1-6.9h7.7v-.3c0-.8-.2-1.5-.5-2.1-.3-.6-.7-1.1-1.3-1.4-.6-.4-1.2-.5-2-.5-.7 0-1.4.2-1.9.6s-1 .9-1.4 1.5c-.3.6-.5 1.3-.6 2.2zm10.5 6.7v-.6h1.7v-10.3h-1.7v-.6h2.2l.1 2v.4c.3-.8.8-1.5 1.4-1.9.6-.5 1.4-.7 2.3-.7h.6c.2 0 .4.1.5.1l-.1.5-.9-.1c-1 0-1.8.3-2.5 1-.6.7-1 1.5-1.2 2.6v6.9h1.7v.6h-4.1zm12.2.2c-1 0-1.8-.3-2.4-.9-.6-.6-.9-1.3-.9-2.3 0-1 .5-1.9 1.4-2.5.9-.6 2.1-1 3.6-1h2.6v-1.5c0-.9-.3-1.7-.8-2.3-.5-.6-1.4-.9-2.6-.9-.6 0-1.2.1-1.7.3-.5.2-.9.5-1.3.8v1.9h-.6v-2.2c.5-.4 1-.8 1.6-1 .6-.3 1.2-.4 2-.4 1.3 0 2.3.3 3 1 .7.7 1 1.6 1 2.8v6.4c0 .3.1.6.1.9h1.6v.6H305c-.1-.5-.2-.9-.2-1.1v-1c-.4.7-1 1.2-1.8 1.7-.7.5-1.6.7-2.5.7zm0-.6c.9 0 1.7-.2 2.5-.7.8-.5 1.4-1.2 1.8-2v-2.7h-2.6c-1.3 0-2.4.3-3.2.8-.8.5-1.2 1.3-1.2 2.1 0 .7.3 1.3.8 1.8.4.5 1.1.7 1.9.7zm12.5.6c-.8 0-1.3-.2-1.7-.7-.4-.5-.6-1.3-.6-2.4v-7.9h-2.1v-.6h2.1v-3.1h.6v3.1h2.8v.6h-2.8v7.9c0 .9.2 1.6.5 2 .3.4.7.6 1.3.6h.6c.2 0 .4 0 .7-.1l.1.5c-.2.1-.4.1-.6.1h-.9zm8.2 0c-.9 0-1.7-.2-2.4-.7-.7-.5-1.3-1.1-1.7-1.9-.4-.8-.6-1.8-.6-2.9v-.7c0-1.1.2-2.1.6-2.9.4-.9 1-1.5 1.7-2s1.5-.7 2.4-.7c.9 0 1.6.2 2.3.6.6.4 1.1.9 1.5 1.6s.5 1.5.5 2.5v.9H317v.8c0 .9.2 1.8.5 2.5.4.7.9 1.3 1.5 1.8.6.4 1.4.6 2.2.6.7 0 1.4-.1 1.9-.4.6-.2 1.1-.6 1.5-1l.3.4c-.5.5-1 .8-1.6 1.1-.6.3-1.3.4-2.1.4zm-4.1-6.9h7.7v-.3c0-.8-.2-1.5-.5-2.1-.3-.6-.7-1.1-1.3-1.4-.6-.4-1.2-.5-2-.5-.7 0-1.4.2-1.9.6s-1 .9-1.4 1.5c-.4.6-.6 1.3-.6 2.2zm19.9 6.9c-.8 0-1.3-.2-1.7-.7-.4-.5-.6-1.3-.6-2.4v-7.9h-2.1v-.6h2.1v-3.1h.6v3.1h2.8v.6h-2.8v7.9c0 .9.2 1.6.5 2 .3.4.7.6 1.3.6h.6c.2 0 .4 0 .7-.1l.1.5c-.2.1-.4.1-.6.1h-.9zm3.1-.2v-.6h1.7v-15.3h-1.7v-.6h2.3v7.4c.4-.8.9-1.5 1.6-1.9.7-.5 1.5-.7 2.5-.7 1.2 0 2.1.4 2.7 1.1.6.8.9 1.9.9 3.6v6.4h1.7v.6h-4v-.6h1.7v-6.4c0-1.5-.3-2.6-.8-3.2-.6-.6-1.3-.9-2.2-.9-1.2 0-2.2.4-2.8 1.1-.7.7-1.1 1.7-1.2 2.8v6.6h1.7v.6h-4.1zm18.7.2c-.9 0-1.7-.2-2.4-.7-.7-.5-1.3-1.1-1.7-1.9-.4-.8-.6-1.8-.6-2.9v-.7c0-1.1.2-2.1.6-2.9.4-.9 1-1.5 1.7-2s1.5-.7 2.4-.7c.9 0 1.6.2 2.3.6.6.4 1.1.9 1.5 1.6.4.7.5 1.5.5 2.5v.9h-8.3v.8c0 .9.2 1.8.5 2.5.4.7.9 1.3 1.5 1.8.6.4 1.4.6 2.2.6.7 0 1.4-.1 1.9-.4.6-.2 1.1-.6 1.5-1l.3.4c-.5.5-1 .8-1.6 1.1-.7.3-1.4.4-2.3.4zm-4-6.9h7.7v-.3c0-.8-.2-1.5-.5-2.1-.3-.6-.7-1.1-1.3-1.4-.6-.4-1.2-.5-2-.5-.7 0-1.4.2-1.9.6-.6.4-1 .9-1.4 1.5-.4.6-.6 1.3-.6 2.2zM221 140.3v-.6h1.7v-14.2H221v-.6h10.7v3.1h-.6v-2.5h-7.9v6.5h6.6v.6h-6.6v7.2h8.2v-2.5h.6v3.1h-11zm13.6 0v-.6h1.7v-10.3h-1.7v-.6h2.2l.1 2.4c.3-.8.8-1.4 1.5-1.9.7-.4 1.5-.7 2.4-.7 1.2 0 2.2.4 2.8 1.2.6.8.9 2 .9 3.7v6.2h1.7v.6h-4v-.6h1.7v-6.2c0-1.6-.3-2.7-.8-3.3-.6-.6-1.3-1-2.3-1-1.2 0-2.2.4-2.8 1.1-.6.7-1 1.7-1.2 2.8v6.6h1.7v.6h-3.9zm18.7.2c-.9 0-1.7-.2-2.4-.7-.7-.5-1.3-1.1-1.7-1.9-.4-.8-.6-1.8-.6-2.9v-.7c0-1.1.2-2.1.6-2.9.4-.9 1-1.5 1.7-2s1.5-.7 2.4-.7c.9 0 1.6.2 2.3.6.6.4 1.1.9 1.5 1.6.4.7.5 1.5.5 2.5v.9h-8.3v.8c0 .9.2 1.8.5 2.5.4.7.9 1.3 1.5 1.8.6.4 1.4.6 2.2.6.7 0 1.4-.1 1.9-.4.6-.2 1.1-.6 1.5-1l.3.4c-.5.4-1 .8-1.6 1.1-.8.2-1.5.4-2.3.4zm-4.1-6.9h7.7v-.3c0-.8-.2-1.5-.5-2.1-.3-.6-.7-1.1-1.3-1.4-.6-.4-1.2-.5-2-.5-.7 0-1.4.2-1.9.6-.6.4-1 .9-1.4 1.5-.4.6-.6 1.3-.6 2.2zm10.5 6.7v-.6h1.7v-10.3h-1.7v-.6h2.2l.1 2v.4c.3-.8.8-1.5 1.4-1.9.6-.5 1.4-.7 2.3-.7h.6c.2 0 .4.1.5.1l-.1.5-.9-.1c-1 0-1.8.3-2.5 1-.6.7-1 1.5-1.2 2.6v6.9h1.7v.6h-4.1zm13.3 4.6c-.6 0-1.1-.1-1.7-.2-.6-.1-1.1-.3-1.6-.5l.2-.6c.5.2 1 .4 1.5.5s1 .2 1.6.2c1.2 0 2.1-.4 2.8-1.1.6-.7 1-1.8 1-3.1v-1.7c-.4.6-.9 1.1-1.6 1.5-.7.4-1.4.5-2.3.5-.9 0-1.7-.2-2.3-.7-.6-.5-1.1-1.1-1.5-2-.3-.9-.5-1.9-.5-3v-.2c0-1.2.2-2.3.5-3.1.3-.9.8-1.6 1.5-2 .6-.5 1.4-.7 2.3-.7s1.7.2 2.3.6c.7.4 1.2 1 1.5 1.7l.1-2.1h.5v11.3c0 1-.2 1.8-.5 2.5s-.8 1.3-1.5 1.7c-.7.3-1.4.5-2.3.5zm-.2-5c1 0 1.8-.2 2.5-.7s1.1-1.1 1.4-1.9v-5.2c-.3-.8-.7-1.5-1.3-2.1-.6-.6-1.5-.9-2.6-.9-.8 0-1.5.2-2 .7-.6.5-1 1.1-1.3 1.9-.3.8-.4 1.7-.4 2.8v.2c0 1.6.3 2.8.9 3.8.7 1 1.6 1.4 2.8 1.4zm4.3-10.5l-.1-.6h1.8v.6h-1.7zm5.5 15.5h-.4c-.1 0-.3-.1-.4-.1l.1-.5c.1 0 .2 0 .3.1h.4c.6 0 1.2-.2 1.5-.6.4-.4.7-.9 1-1.7l.7-1.9-4.3-10.8h-1.2v-.6h3.4v.6h-1.5l3.5 8.8.4 1.1h.1l3.8-9.9h-1.5v-.6h3.4v.6h-1.2l-4.9 12.7c-.2.5-.4 1-.7 1.4-.2.4-.5.7-.9 1-.5.3-1 .4-1.6.4zm19.4-4.6v-.6h1.7v-14.2h-5v2.5h-.6v-3.1h11.8v3.1h-.6v-2.5h-5v14.2h1.7v.6h-4zm8.9 0v-.6h1.7v-10.3h-1.7v-.6h2.2l.1 2v.4c.3-.8.8-1.5 1.4-1.9.6-.5 1.4-.7 2.3-.7h.6c.2 0 .4.1.5.1l-.1.5-.9-.1c-1 0-1.8.3-2.5 1-.6.7-1 1.5-1.2 2.6v6.9h1.7v.6h-4.1zm12.2.2c-1 0-1.8-.3-2.4-.9-.6-.6-.9-1.3-.9-2.3 0-1 .5-1.9 1.4-2.5.9-.6 2.1-1 3.6-1h2.6v-1.5c0-.9-.3-1.7-.8-2.3-.5-.6-1.4-.9-2.6-.9-.6 0-1.2.1-1.7.3-.5.2-.9.5-1.3.8v1.9h-.6v-2.2c.5-.4 1-.8 1.6-1 .6-.3 1.2-.4 2-.4 1.3 0 2.3.3 3 1 .7.7 1 1.6 1 2.8v6.4c0 .3.1.6.1.9h1.6v.6h-2.1c-.1-.5-.2-.9-.2-1.1v-1c-.4.7-1 1.2-1.8 1.7-.7.5-1.6.7-2.5.7zm0-.6c.9 0 1.7-.2 2.5-.7.8-.5 1.4-1.2 1.8-2v-2.7h-2.6c-1.3 0-2.4.3-3.2.8-.8.5-1.2 1.3-1.2 2.1 0 .7.3 1.3.8 1.8.4.5 1.1.7 1.9.7zm8.3.4v-.6h1.7v-10.3h-1.7v-.6h2.2l.1 2.4c.3-.8.8-1.4 1.5-1.9.7-.4 1.5-.7 2.4-.7 1.2 0 2.2.4 2.8 1.2.6.8.9 2 .9 3.7v6.2h1.7v.6h-4v-.6h1.7v-6.2c0-1.6-.3-2.7-.8-3.3-.6-.6-1.3-1-2.3-1-1.2 0-2.2.4-2.8 1.1-.6.7-1 1.7-1.2 2.8v6.6h1.7v.6h-3.9zm17.8.2c-.8 0-1.6-.1-2.3-.4-.7-.3-1.3-.6-1.8-1.1v-2h.6v1.7c.4.4.9.8 1.5 1 .6.2 1.3.3 1.9.3 1.1 0 1.9-.2 2.5-.7.6-.5.9-1.1.9-1.7 0-.6-.3-1.2-.8-1.7s-1.4-.9-2.7-1.2c-1.3-.3-2.3-.7-2.9-1.1-.6-.5-.9-1.1-.9-2 0-.5.1-1 .4-1.5.3-.4.7-.8 1.3-1 .6-.3 1.2-.4 2-.4s1.5.1 2.2.4c.6.3 1.1.7 1.6 1.1v2.1h-.6v-1.8c-.4-.4-.8-.7-1.3-.9-.5-.2-1.1-.3-1.9-.3-1 0-1.8.2-2.3.7-.5.5-.8 1-.8 1.6 0 .4.1.8.3 1.1.2.3.5.6 1 .8.5.2 1.2.5 2.1.7 1.3.3 2.2.7 2.9 1.2.7.5 1 1.2 1 2.2 0 .9-.4 1.6-1.1 2.2-.6.4-1.5.7-2.8.7zm6.5-.2v-.6h1.7v-10.3h-1.7v-.6h2.3v10.8h1.7v.6h-4zm1.5-15v-1.5h.8v1.5h-.8zm9.1 15.2c-.8 0-1.3-.2-1.7-.7-.4-.5-.6-1.3-.6-2.4v-7.9h-2.1v-.6h2.1v-3.1h.6v3.1h2.8v.6h-2.8v7.9c0 .9.2 1.6.5 2 .3.4.7.6 1.3.6h.6c.2 0 .4 0 .7-.1l.1.5c-.2.1-.4.1-.6.1h-.9zm3.4-.2v-.6h1.7v-10.3h-1.7v-.6h2.3v10.8h1.7v.6h-4zm1.5-15v-1.5h.8v1.5h-.8zm10.1 15.2c-1 0-1.9-.2-2.6-.7-.8-.5-1.3-1.2-1.8-2-.4-.9-.6-1.8-.6-3v-.4c0-1.1.2-2.1.6-3 .4-.9 1-1.5 1.8-2 .7-.5 1.6-.7 2.6-.7s1.9.2 2.6.7c.7.5 1.3 1.2 1.8 2 .4.9.6 1.8.6 3v.4c0 1.1-.2 2.1-.6 3-.4.9-1 1.5-1.8 2-.8.4-1.6.7-2.6.7zm0-.6c.9 0 1.7-.2 2.3-.7.7-.5 1.2-1.1 1.5-1.9.4-.8.5-1.6.5-2.6v-.4c0-.9-.2-1.8-.6-2.6-.4-.8-.9-1.4-1.5-1.9-.7-.5-1.4-.7-2.3-.7-.9 0-1.7.2-2.3.7-.7.5-1.2 1.1-1.5 1.9-.4.8-.5 1.6-.5 2.6v.4c0 1 .2 1.8.5 2.6.4.8.9 1.4 1.5 1.9.7.5 1.5.7 2.4.7zm7 .4v-.6h1.7v-10.3h-1.7v-.6h2.2l.1 2.4c.3-.8.8-1.4 1.5-1.9.7-.4 1.5-.7 2.4-.7 1.2 0 2.2.4 2.8 1.2.6.8.9 2 .9 3.7v6.2h1.7v.6h-4v-.6h1.7v-6.2c0-1.6-.3-2.7-.8-3.3-.6-.6-1.3-1-2.3-1-1.2 0-2.2.4-2.8 1.1-.6.7-1 1.7-1.2 2.8v6.6h1.7v.6h-3.9z"/></g><path d="M213.1 151.6c-.2 0-.4-.2-.4-.4V93.7c0-.2.2-.4.4-.4s.4.2.4.4v57.5c0 .3-.2.4-.4.4z"/></svg>